<?xml version="1.0" encoding="UTF-8"?>
<!-- Created with Inkscape (http://www.inkscape.org/) -->
<svg width="314" height="184" inkscape:version="0.92.4 5da689c313, 2019-01-14" sodipodi:docname="Dororo_logo.svg" version="1.1" viewBox="0 0 314 184" xmlns="http://www.w3.org/2000/svg" xmlns:cc="http://creativecommons.org/ns#" xmlns:dc="http://purl.org/dc/elements/1.1/" xmlns:inkscape="http://www.inkscape.org/namespaces/inkscape" xmlns:rdf="http://www.w3.org/1999/02/22-rdf-syntax-ns#" xmlns:sodipodi="http://sodipodi.sourceforge.net/DTD/sodipodi-0.dtd">
 <metadata>
  <rdf:RDF>
   <cc:Work rdf:about="">
    <dc:format>image/svg+xml</dc:format>
    <dc:type rdf:resource="http://purl.org/dc/dcmitype/StillImage"/>
    <dc:title/>
   </cc:Work>
  </rdf:RDF>
 </metadata>
 <sodipodi:namedview bordercolor="#666666" borderopacity="1" gridtolerance="10" guidetolerance="10" inkscape:current-layer="svg1072" inkscape:cx="157" inkscape:cy="200.80565" inkscape:pageopacity="0" inkscape:pageshadow="2" inkscape:window-height="1015" inkscape:window-maximized="1" inkscape:window-width="1920" inkscape:window-x="0" inkscape:window-y="0" inkscape:zoom="1.4705119" objecttolerance="10" pagecolor="#ffffff" showgrid="false"/>
 <path d="m135.68 169.2c-4.6995-1.6412-9.9305-4.6217-9.4568-5.3883 1.1797-1.9088-1.7553-4.7937-8.4625-8.3182-7.2339-3.8013-11.029-6.9241-4.3424-3.5733 15.167 7.601 17.174 8.2365 24.374 7.7213 6.7619-0.48381 7.0686-0.62673 12.659-5.8985 3.1508-2.9715 9.918-8.9604 15.038-13.309 10.212-8.6725 11.191-9.9436 11.191-14.535 0-4.0208-4.3558-8.359-7.4129-7.383-1.1479 0.36645-3.7669 0.60205-5.82 0.52354-3.1623-0.12092-3.8249 0.22373-4.3346 2.2546-0.33093 1.3185-1.7649 3.4525-3.1867 4.7421l-2.585 2.3448 1.6696-2.4725c1.9289-2.8565 2.1064-4.0275 0.61058-4.0275-0.58246 0-0.7809 0.45-0.44098 1s-0.2084 1-1.2185 1-2.9491 0.77931-4.309 1.7318c-1.3599 0.9525-2.6975 1.6788-2.9725 1.614-1.3159-0.30999-8.0034 4.335-8.1404 5.6542-0.0857 0.825-0.20163 2.3014-0.2577 3.281-0.0561 0.97954-0.59707 2.1045-1.2022 2.5-1.614 1.0547-3.3997 4.7874-3.3997 7.1063 0 1.4539-0.97302 2.2874-3.4777 2.979-4.0752 1.1252-10.522-0.44256-10.522-2.5588 0-0.74634-1.0617-1.7606-2.3594-2.254-3.7457-1.4241-4.2148-6.3981-1.104-11.706 1.4012-2.391 3.2052-4.3473 4.0088-4.3473s4.4124-3.0375 8.0196-6.75c3.6072-3.7125 6.2575-5.9625 5.8897-5-0.901 2.3579 0.044 2.2044 2.4717-0.40144 1.1024-1.1833 1.7458-2.5699 1.4297-3.0813-0.31606-0.5114 0.712-2.2805 2.2846-3.9313l2.8592-3.0014-4.5 0.2517c-4.7256 0.26433-12.304-2.8165-14.715-5.9824-1.4716-1.9321-1.6962-9.1039-0.28519-9.1039 0.55 0 1-0.45 1-1s-0.70532-1-1.5674-1c-3.7815 0 2.3049-9.7975 6.6229-10.661 1.8879-0.37758 3.1824-1.4634 3.8209-3.205l0.9657-2.6339 0.0789 2.75c0.0624 2.173 0.55107 2.7426 2.329 2.7146 1.2375-0.0195 3.375-0.67854 4.75-1.4646 3.4549-1.975 5-1.8413 5 0.43262 0 2.7128 4.0957 3.8987 5.4635 1.5819 5.6808-9.6225 7.7215-10.387 13.585-5.09 2.2511 2.0337 5.0054 3.5755 6.3874 3.5755 1.4942 0 2.658 0.71922 3.0226 1.868 1.0619 3.3458 0.89618 9.1777-0.29469 10.369-0.63988 0.63987-1.1634 2.225-1.1634 3.5224 0 1.3933-0.42995 2.0933-1.0503 1.7099-1.2538-0.77489-7.1581 1.8722-8.9253 4.0016-0.68808 0.82909-1.6802 1.2422-2.2046 0.9181-0.52446-0.32414-0.81098 0.24331-0.63669 1.261 0.20886 1.2196-0.19444 1.7367-1.1831 1.517-0.825-0.18334-1.1758-9e-3 -0.77955 0.38712 1.0839 1.0839-3.2508 6.6486-4.7352 6.0789-1.1482-0.44059-1.5148 0.14843-2.4072 3.8673-0.13198 0.55-1.5535 1.8317-3.159 2.8482-5.5492 3.5135-2.8942 3.5841 4.0336 0.10729 16.359-8.2099 31.38-6.7976 38.606 3.6296 2.98 4.3001 4.2398 11.843 3.0432 18.222-0.70476 3.7567-7.9003 11.762-12.893 14.344-1.645 0.85067-7.99 5.3233-14.1 9.9391l-11.109 8.3925-9.5-0.07c-5.225-0.0385-10.175-0.30573-11-0.59384zm9.5528-2.2329c-0.31089-0.50302 5e-5 -1.1314 0.69098-1.3963 0.82536-0.31648 0.39888-1.1112-1.2435-2.317-1.8627-1.3676-4.3766-1.8532-9.8646-1.9057-7.0453-0.0673-7.275 2e-3 -5.2928 1.6075 1.1396 0.9228 1.8483 1.9015 1.5749 2.175-0.27342 0.27343 0.42133 0.73733 1.5439 1.0309 1.1226 0.29356 1.818 0.17286 1.5454-0.26821-1.1296-1.8278 2.8771-1.8583 6.3045-0.048 4.0733 2.1514 5.6008 2.5128 4.7412 1.1219zm8.7898-4.3293c1.7332-1.2342 3.8277-2.1154 4.6544-1.9583 1.2175 0.23135 1.2453 0.11146 0.14632-0.63108-0.9473-0.64005-1.0228-1.1231-0.25-1.6007 1.7013-1.0515 1.3286-4.566-0.48428-4.566-0.87507 0-3.4311 1.575-5.68 3.5s-4.683 3.5-5.409 3.5c-1.8843 0-1.631 1.7194 0.43 2.9199 2.4893 1.4499 3.0646 1.3483 6.5926-1.1638zm-23.343-35.756c0-0.55-0.45-1-1-1s-1 0.45-1 1 0.45 1 1 1 1-0.45 1-1zm11-9.0464c0-3.5322-0.21523-3.9088-1.7612-3.0814-0.96865 0.51841-2.6383 1.9117-3.7102 3.0962-2.1742 2.4025-1.3744 3.4426 2.9208 3.7981 2.3466 0.19421 2.5507-0.11081 2.5507-3.8129zm2.6995-3.2943c-0.85326-2.2236 0.81246-3.7792 4.1482-3.874 3.8714-0.11007 4.1306-1.3651 0.42818-2.0729-2.0246-0.38703-3.2992 0.0998-4.9638 1.8959-2.1446 2.3141-2.2006 5.3917-0.0981 5.3917 0.55 0 0.76849-0.60331 0.48553-1.3407zm-1.6995-5.6593c0-0.55-0.19844-1-0.44098-1s-0.7191 0.45-1.059 1-0.14148 1 0.44098 1 1.059-0.45 1.059-1zm16-14c0-0.55-0.45-1-1-1s-1 0.45-1 1 0.45 1 1 1 1-0.45 1-1zm61.811 44.09c-2.0289-0.4152-6.677-2.2259-10.329-4.0238-5.778-2.8445-6.8896-3.8508-8.5611-7.7502-2.3139-5.398-2.3657-5.9295-0.42091-4.3155 1.224 1.0158 1.5 0.95872 1.5-0.31017 0-0.85528-0.90048-1.8409-2.0011-2.1902-2.4816-0.78761-3.5661-2.7889-4.4707-8.2497-0.38721-2.3375-1.243-4.25-1.9018-4.25s-1.2759-0.7875-1.3713-1.75c-0.0954-0.9625-0.41999-3.325-0.72122-5.25-0.43598-2.7861-0.23414-2.5311 0.9895 1.25 0.84545 2.6125 1.9211 4.75 2.3903 4.75s1.0885 0.9 1.3761 2 0.98373 2 1.5468 2c0.67918 0 0.71069-1.0918 0.0936-3.2434-1.3044-4.5483-1.1917-4.9369 1.0299-3.5494 1.4194 0.88644 1.6263 1.4405 0.75 2.0085-0.86435 0.56025-0.89572 0.99866-0.10981 1.5344 0.60516 0.4125 1.6281 1.7524 2.2731 2.9775 1.0131 1.9242 0.94686 2.1408-0.48675 1.5907-2.3121-0.88724-1.3337 1.7251 1.1649 3.1104 1.0629 0.58929 3.1628 2.0458 4.6665 3.2367 1.5037 1.1909 4.2072 2.4849 6.0079 2.8756 1.8007 0.39069 3.569 1.1742 3.9296 1.7411 0.97373 1.5308 9.4987-1.1203 12.955-4.0288 3.629-3.0536 11.792-6.2259 18.765-7.2926 8.4768-1.2967 10.166-2.5007 17.938-12.784 10.526-13.927 13.147-18.268 13.168-21.805 0.0255-4.3852-1.9011-5.5609-8.6748-5.2936-6.0243 0.23772-10.014 1.6582-12.261 4.3653-0.71939 0.86682-3.8366 2.2971-6.9272 3.1785-7.5534 2.154-11.338 4.5979-14.486 9.3549-3.2149 4.858-3.2702 5.4241-0.38352 3.9219l2.25-1.1709-2.25 2.4502c-1.2375 1.3476-2.25 3.2087-2.25 4.1357 0 0.97673-0.78236 1.6856-1.8604 1.6856-1.0232 0-3.9482 0.28617-6.5 0.63592-4.3345 0.59411-4.6396 0.48782-4.6396-1.6166 0-1.7728-0.43322-2.1393-2.034-1.7206-1.9556 0.51138-2.0083 0.23615-1.3666-7.1334 0.36706-4.2159 1.0343-8.38 1.4827-9.2536 0.44842-0.87358 0.57009-2.526 0.27039-3.6721-0.42257-1.6159 0.35559-2.6797 3.4657-4.7379 2.2058-1.4598 5.5117-2.7919 7.3463-2.9603 3.9937-0.36663 7.1575-1.735 11.767-5.0896 1.8874-1.3735 3.8843-2.3464 4.4375-2.162 1.2805 0.42683 4.0934-2.3727 6.0151-5.9865 0.81986-1.5418 3.6138-5.0532 6.2087-7.8032 7.9826-8.4597 12.154-14.691 12.216-18.252 0.0314-1.7885 0.34255-4.151 0.69137-5.25 0.75827-2.3891 0.83346-2.3802-4.4308-0.52286-4.5155 1.5932-12.014 6.4931-12.048 7.8735-0.0542 2.1553 3.3824 7.7102 4.5038 7.2798 1.6021-0.61479-0.8798 4.5908-3.0459 6.3885-0.81359 0.67522-1.4924 1.7351-1.5086 2.3552-0.0355 1.3664-5.6028 7.6276-6.7823 7.6276-0.46188 0-1.8967-1.125-3.1884-2.5s-3.103-2.5-4.0251-2.5c-4.4165 0-7.6451-2.2298-10.754-7.427-1.7717-2.9621-3.2212-6.0653-3.2212-6.896 0-0.83072-0.47952-1.6702-1.0656-1.8656-1.5966-0.53219 1.7876-9.8075 4.7133-12.918 1.3484-1.4336 4.3418-3.1646 6.652-3.8465 4.664-1.3767 10.026-4.3199 13.45-7.383 1.2375-1.1069 2.25-1.5392 2.25-0.96067 0 0.57852-0.70467 1.6367-1.5659 2.3515-2.2649 1.8797-4.0978 5.8447-4.8804 10.557-0.66437 4.0008-0.59826 4.129 2.4439 4.7374 6.0438 1.2088 15.569-5.2419 14.432-9.7732-0.46111-1.8372 0.0192-3.1162 1.8627-4.9597 8.9801-8.9801 31.497 1.8276 31.666 15.199 0.0231 1.8236 0.46052 4.0979 0.97214 5.0539 1.4721 2.7506-0.14817 4.0799-5.6062 4.5995-6.9609 0.66267-9.5363 1.8072-12.814 5.6948-1.5472 1.8348-3.3615 3.2172-4.0319 3.072-0.67038-0.14526-2.4624 1.3662-3.9822 3.3589l-2.7634 3.623 3.3839-0.60633c2.5139-0.45043 2.8697-0.36794 1.3839 0.32084-1.1 0.50995-2.9574 0.9588-4.1276 0.99746-1.1702 0.0387-2.6653 0.71827-3.3226 1.5102-0.65728 0.79198-2.1749 1.5795-3.3724 1.75s-2.6216 1.3225-3.1645 2.56-1.5554 2.25-2.25 2.25-1.2629 0.40186-1.2629 0.89302c0 1.319 2.8399 2.1751 3.527 1.0633 0.32508-0.52598 1.335-0.95633 2.2442-0.95633 2.3825 0-4.0678 5.2001-10.521 8.4821-2.8875 1.4685-5.25 3.0857-5.25 3.5939 0 1.3298 0.53336 1.1942 5.8-1.4746 2.6034-1.3193 6.6944-2.9267 9.0911-3.572s5.5391-1.6405 6.9832-2.2115c2.4728-0.97766 2.5092-1.0858 0.62566-1.8577-1.8151-0.74382-1.7672-0.82608 0.51787-0.88987 1.3848-0.0387 4.187-1.2045 6.227-2.5907 2.04-1.3862 5.0031-2.7792 6.5847-3.0955 3.4774-0.69548 9.1208 1.9761 14.288 6.764 1.9896 1.8436 4.8021 4.3304 6.25 5.5263 2.341 1.9336 2.6325 2.8807 2.6325 8.5536 0 8.9303-3.4066 15.597-10.344 20.243-2.8359 1.8992-6.2142 5.027-7.5074 6.9508s-5.1087 6.2382-8.4789 9.5876c-4.9343 4.9038-5.8396 6.2719-4.6487 7.025 1.2387 0.7833 1.1881 0.93769-0.31154 0.95052-0.98477 8e-3 -3.0098 0.89989-4.5 1.981-1.4902 1.0812-5.7549 2.441-9.4771 3.022-4.2508 0.66346-9.7119 2.5409-14.685 5.0484-5.8278 2.9386-9.0561 3.9664-12.232 3.8944-2.3733-0.0538-5.6651 0.12984-7.3151 0.40807-1.65 0.27824-4.66 0.16618-6.6889-0.24902zm11.742-4.5003c0.77589-0.7759 1.9812-1.6143 2.6786-1.8631s0.89791-0.84643 0.44576-1.328c-1.0819-1.1524-19.764-1.1619-19.381-0.01 0.44107 1.3277 8.7923 4.4918 12.024 4.5558 1.5518 0.0307 3.4562-0.57895 4.2321-1.3548zm-11.554-6.5893c0-0.55-0.675-1-1.5-1s-1.5 0.45-1.5 1 0.675 1 1.5 1 1.5-0.45 1.5-1zm14.644-3.2821c2.396-1.164 4.3563-2.4768 4.3563-2.9172 0-1.1095-0.23168-1.059-5.5 1.1993-2.5662 1.1-5.7167 2-7.0011 2-3.0882 0-5.4989 0.97348-5.4989 2.2205 0 1.5269 8.5947-0.0496 13.644-2.5026zm14.376 0.75792c0.69572-0.83829 1.0555-1.7336 0.79959-1.9895-0.63297-0.63297-5.8021 1.8251-5.8118 2.7637-0.0141 1.3583 3.7213 0.78137 5.0123-0.77417zm9.9799-3.9168c0-0.24254-0.45-0.7191-1-1.059s-1-0.14148-1 0.44098 0.45 1.059 1 1.059 1-0.19844 1-0.44098zm-15-3.9916c0-0.78794 0.9-1.7183 2-2.0674 2.4554-0.7793 2.6884-2.4975 0.25-1.8431-2.8513 0.76528-5.5 3.1295-4.7911 4.2766 0.95164 1.5398 2.5411 1.3108 2.5411-0.36608zm35.954-27.214c2.3402-3.9663 2.5956-5.5064 0.79609-4.8002-1.4102 0.55344-5.75 6.8943-5.75 8.4013 0 1.9415 2.9482-0.2016 4.9539-3.6011zm-26.704-21.854c-0.36905-1.4762-3.5115-1.2155-4.028 0.33415-0.30489 0.91467 0.29775 1.2291 1.9167 1 1.2988-0.18378 2.2489-0.78415 2.1114-1.3342zm0.75-4.6903c0-1.3144-2.2728-0.49133-2.7711 1.0035-0.24358 0.73075 0.21359 0.95424 1.1875 0.58052 0.87096-0.33422 1.5836-1.047 1.5836-1.584zm9-9.8097c0-0.55-0.45-1-1-1s-1 0.45-1 1 0.45 1 1 1 1-0.45 1-1zm-188.24 58.719c-4.4497-1.9538-5.2346-2.0018-12.754-0.78067-5.7332 0.93105-8.7937 1.0058-10.758 0.26284-1.5103-0.57111-4.0915-1.3356-5.736-1.6989s-3.3251-1.1874-3.7347-1.8313c-1.2753-2.0049-0.84584-14.437 0.61794-17.887 0.7663-1.8062 2.1177-5.803 3.0031-8.8818 0.88542-3.0788 2.5085-6.4111 3.6067-7.405 2.1332-1.9305 2.6403-4.9814 0.99686-5.9972-0.55-0.33991-1-1.5179-1-2.6176 0-3.0141-5.939-9.8824-8.5452-9.8824-2.1019 0-6.3256-1.4969-12.96-4.5929-1.6527-0.77127-3.6013-2.7499-4.3304-4.397-0.89152-2.0141-2.3634-3.2661-4.4952-3.8236-3.1363-0.82027-3.1433-0.83611-0.66962-1.5058 1.559-0.42208 3.1456-2.0651 4.2152-4.3652 2.5462-5.4752 0.82152-8.4605-5.7265-9.9122-3.859-0.85553-4.4226-1.1964-2.4888-1.5052 1.519-0.24254 2.4559-1.0232 2.3876-1.9896-0.09317-1.3186 0.29155-1.404 2.2504-0.49952 1.2995 0.60004 2.1428 1.6768 1.8738 2.3929-0.26892 0.71607-0.07519 1.0462 0.43051 0.73369 0.5057-0.31254 1.2156-0.0891 1.5776 0.49662 0.46393 0.75066 1.0351 0.75198 1.9358 5e-3 0.70273-0.58321 2.1252-0.9618 3.161-0.84131 1.0358 0.12049 3.5678-0.14871 5.6267-0.59823s4.8827-0.53136 6.2752-0.18187c3.4616 0.86882 9.5585 6.592 11.979 11.245 1.0987 2.112 2.5612 4.4346 3.25 5.1614 0.68883 0.72677 1.2524 2.702 1.2524 4.3894 0 1.6874 1.2668 5.1428 2.8152 7.6786 1.5483 2.5358 3.1092 5.3981 3.4686 6.3606 0.35939 0.9625 1.064 1.75 1.5657 1.75s4.4534-3.9375 8.7814-8.75 11.582-12.401 16.119-16.864c4.5375-4.4629 8.25-8.5579 8.25-9.1 0-0.54204-1.3719-2.8794-3.0488-5.1942-2.0156-2.7825-2.84-4.8666-2.4326-6.15 0.34726-1.0941 0.15033-1.9413-0.45123-1.9413-0.58706 0-1.0674-0.89142-1.0674-1.9809 0-2.1821 3.6585-3.6031 7.016-2.7251 1.0912 0.28535 1.984 0.0975 1.984-0.4175 0-0.51498 1.3548 0.0653 3.0106 1.2895 1.8107 1.3387 4.7003 2.3077 7.25 2.4311 2.3317 0.11289 5.082 0.24973 6.1118 0.30409 1.4808 0.0782 1.6315 0.38913 0.72064 1.4867-0.8259 0.99515-0.87242 2.6346-0.16441 5.7939 2.3002 10.264-1.4764 21.419-8.0245 23.702-1.7237 0.60088-3.5079 0.86137-3.965 0.57887-0.45709-0.28249-4.5679 2.9956-9.1351 7.2847-4.5672 4.2891-9.8791 8.8966-11.804 10.239-1.925 1.3423-3.95 2.9532-4.5 3.5798s-4.2282 3.6724-8.1737 6.7685c-6.4108 5.0306-7.3414 6.2059-8.75 11.051-2.0021 6.8871-2.1042 6.3227 1.5446 8.5417 2.696 1.6395 4.432 1.8223 12.75 1.3421 9.1671-0.52918 9.8092-0.71691 13.382-3.9126 3.7221-3.3292 5.4359-4.2802 4.2471-2.3568-0.78218 1.2656 0.54163 1.2656 2.5 0 1.2397-0.80118 1.2535-0.97203 0.07959-0.98468-0.78123-8e-3 1.3563-2.5281 4.75-5.5992 3.3937-3.0712 6.1704-6.166 6.1704-6.8776 0-2.0705 2.9014-4.0371 4.1355-2.8031 0.73429 0.73429 0.54597 1.8211-0.62531 3.6087-0.94315 1.4394-1.4081 3.4021-1.0633 4.4885 0.39507 1.2448 0.064 2.1411-0.93207 2.5233-2.1118 0.81039-3.6979 5.1558-4.0675 11.144-0.4687 7.5936-1.9169 14.041-3.7987 16.914-1.6171 2.468-3.6486 3.4707-3.6486 1.8007 0-0.43215-0.7875-0.8638-1.75-0.95924-0.9625-0.0954-3.1-0.44306-4.75-0.77249-2.4279-0.48473-3.6316-0.0158-6.3117 2.4592-3.8173 3.5251-3.273 3.4802-9.4298 0.77697zm-18.758-30.219c0-1.375-0.45-2.5-1-2.5s-1 1.125-1 2.5 0.45 2.5 1 2.5 1-1.125 1-2.5zm10.429-11.071c0.86429-0.86429 1.5714-1.0856 1.5714-0.49193 0 1.3192 9.2985-5.081 9.3816-6.4574 0.04664-0.7722 3.2994-3.8478 6.535-6.179 0.22917-0.16511 0.11942-0.59745-0.24387-0.96074-0.36329-0.3633-1.6758 0.19598-2.9167 1.2428-2.0939 1.7665-2.0839 1.7084 0.13923-0.80864 1.3174-1.4916 2.8495-2.4314 3.4045-2.0883 0.55503 0.34303 0.73452 0.17934 0.39887-0.36377-0.81473-1.3182 4.1471-8.5349 5.3549-7.7884 0.5205 0.32169 0.94637-0.34167 0.94637-1.4741 0-3.0616-2.7218-2.4976-4.4951 0.93157-1.6856 3.2596-5.0287 5.84-8.4097 6.4911-3.029 0.58333-7.9738 4.6948-8.0398 6.685-0.03043 0.91667-1.2592 2.068-2.7306 2.5584-2.3483 0.78276-2.6994 1.4652-2.873 5.5833-0.10873 2.5804-0.06201 4.6916 0.10383 4.6916 0.16584 0 1.0087-0.70714 1.873-1.5714zm30.629-32.536c0.8201-1.5324 0.82775-2.4074 0.02804-3.2072-1.4893-1.4893-4.5788 1.5865-3.7536 3.737 0.84032 2.1899 2.3878 1.9698 3.7256-0.52981zm100.96 51.357c-0.026-2.123 3.8045-5.2564 5.5888-4.5717 1.3382 0.51351 1.1066 0.91407-1.2273 2.1227-1.5822 0.81935-3.2074 1.9868-3.6115 2.5944-0.51069 0.76786-0.73935 0.72354-0.75-0.14536zm-83.015-1.75c0-0.91666 0.48375-1.5054 1.075-1.3083s1.075 0.78583 1.075 1.3083-0.48375 1.1112-1.075 1.3083c-0.59125 0.19708-1.075-0.39167-1.075-1.3083zm11.136-17.921c-0.0749-1.0567-0.80043-2.6552-1.6123-3.5524-0.81186-0.89709-1.624-2.6-1.8047-3.7842-0.18072-1.1842-1.1269-3.0353-2.1027-4.1135-0.97577-1.0782-1.901-3.1165-2.0562-4.5296-0.29155-2.6559-4.4858-9.5802-5.8103-9.5923-0.4125-4e-3 -0.75-0.36525-0.75-0.8033 0-1.4856 4.78-0.71331 6.7778 1.095 1.3662 1.2367 2.7882 1.5975 4.5515 1.1549 5.9653-1.4972 13.793 4.9095 15.319 12.538 0.50795 2.5398 0.14352 3.071-3.2885 4.7938-2.1229 1.0656-4.3547 1.76-4.9596 1.543-1.4546-0.52169-3.0981 1.5717-3.6681 4.6721-0.31869 1.7334-0.5014 1.9108-0.59582 0.57875zm140.42-10.493c-0.32198-0.52096-0.15917-1.2106 0.3618-1.5326 0.52097-0.32197 1.2106-0.15916 1.5326 0.3618 0.32198 0.52097 0.15917 1.2106-0.3618 1.5326-0.52097 0.32197-1.2106 0.15916-1.5326-0.36181zm-131.17-17.607c-4.6266-4.7637-7.098-8.0604-6.7406-8.9916 0.32398-0.84429-0.15431-1.746-1.1234-2.1179-3.6604-1.4046 1.1103-2.3989 8.4801-1.7673 9.0828 0.77834 10.379 1.3869 11.946 5.6098 0.67132 1.8085 1.633 4.0696 2.1372 5.0246 2.4055 4.5572-0.50683 9.7636-5.4615 9.7636-1.092 0-5.1116-3.2726-9.2379-7.5213zm-127.88-15.479c-0.33992-0.55 0.11008-1 1-1 0.88992 0 1.3399 0.45 1 1-0.33992 0.55-0.78992 1-1 1s-0.66008-0.45-1-1zm5.5-7c0-0.55 0.42344-1 0.94098-1s1.2191 0.45 1.559 1-0.08352 1-0.94098 1c-0.85746 0-1.559-0.45-1.559-1z" inkscape:connector-curvature="0"/>
</svg>
